<mxfile host="app.diagrams.net" agent="Mozilla/5.0 (Windows NT 10.0; Win64; x64; rv:137.0) Gecko/20100101 Firefox/137.0" version="26.2.14">
  <diagram name="PÃ¡gina-1" id="kkWn5l8wDJkoydGZJ0Jc">
    <mxGraphModel dx="817" dy="915" grid="1" gridSize="10" guides="1" tooltips="1" connect="1" arrows="1" fold="1" page="0" pageScale="1" pageWidth="850" pageHeight="1100" math="0" shadow="0">
      <root>
        <mxCell id="0" />
        <mxCell id="1" parent="0" />
        <mxCell id="ZtHhPvYSSE7vf8KGw9ym-1" value="&lt;div&gt;Produto&lt;/div&gt;" style="rounded=0;whiteSpace=wrap;html=1;" vertex="1" parent="1">
          <mxGeometry x="-40" y="-70" width="120" height="60" as="geometry" />
        </mxCell>
        <mxCell id="ZtHhPvYSSE7vf8KGw9ym-4" value="" style="ellipse;whiteSpace=wrap;html=1;aspect=fixed;fillColor=#f8cecc;strokeColor=#b85450;" vertex="1" parent="1">
          <mxGeometry x="-130" y="-50" width="20" height="20" as="geometry" />
        </mxCell>
        <mxCell id="ZtHhPvYSSE7vf8KGw9ym-6" value="" style="endArrow=none;html=1;rounded=0;fontSize=12;startSize=8;endSize=8;curved=1;" edge="1" parent="1" source="ZtHhPvYSSE7vf8KGw9ym-4" target="ZtHhPvYSSE7vf8KGw9ym-1">
          <mxGeometry width="50" height="50" relative="1" as="geometry">
            <mxPoint x="10" y="70" as="sourcePoint" />
            <mxPoint x="60" y="20" as="targetPoint" />
          </mxGeometry>
        </mxCell>
      </root>
    </mxGraphModel>
  </diagram>
</mxfile>
